<svg width="400" height="400" viewBox="0 0 400 400" xmlns="http://www.w3.org/2000/svg">
  <defs>
    <linearGradient id="grad1" x1="0%" y1="0%" x2="100%" y2="100%">
      <stop offset="0%" style="stop-color:#84cc16;stop-opacity:1" />
      <stop offset="100%" style="stop-color:#65a30d;stop-opacity:1" />
    </linearGradient>
    <linearGradient id="grad2" x1="0%" y1="0%" x2="100%" y2="100%">
      <stop offset="0%" style="stop-color:#a3e635;stop-opacity:0.8" />
      <stop offset="100%" style="stop-color:#84cc16;stop-opacity:0.8" />
    </linearGradient>
  </defs>
  
  <!-- Background circle -->
  <circle cx="200" cy="200" r="180" fill="url(#grad1)" opacity="0.9"/>
  
  <!-- Inner circle -->
  <circle cx="200" cy="200" r="120" fill="url(#grad2)" opacity="0.7"/>
  
  <!-- Mortar and pestle -->
  <g transform="translate(200,200)">
    <!-- Mortar bowl -->
    <ellipse cx="0" cy="20" rx="60" ry="40" fill="#8B4513" opacity="0.8"/>
    <ellipse cx="0" cy="15" rx="55" ry="35" fill="#A0522D"/>
    <ellipse cx="0" cy="10" rx="50" ry="30" fill="#D2691E" opacity="0.3"/>
    
    <!-- Pestle -->
    <rect x="-8" y="-60" width="16" height="80" rx="8" fill="#8B4513" transform="rotate(-15)"/>
    <ellipse cx="-5" cy="-55" rx="10" ry="6" fill="#A0522D" transform="rotate(-15)"/>
  </g>
  
  <!-- Decorative herbs -->
  <g opacity="0.6">
    <path d="M80 120 Q90 110 100 120 Q110 130 120 120" stroke="#22c55e" stroke-width="3" fill="none"/>
    <circle cx="85" cy="118" r="3" fill="#22c55e"/>
    <circle cx="95" cy="115" r="2" fill="#16a34a"/>
    <circle cx="105" cy="118" r="3" fill="#22c55e"/>
    <circle cx="115" cy="122" r="2" fill="#16a34a"/>
  </g>
  
  <g opacity="0.6">
    <path d="M280 300 Q290 290 300 300 Q310 310 320 300" stroke="#22c55e" stroke-width="3" fill="none"/>
    <circle cx="285" cy="298" r="3" fill="#22c55e"/>
    <circle cx="295" cy="295" r="2" fill="#16a34a"/>
    <circle cx="305" cy="298" r="3" fill="#22c55e"/>
    <circle cx="315" cy="302" r="2" fill="#16a34a"/>
  </g>
  
  <!-- Om symbol -->
  <g transform="translate(200,80)" opacity="0.4">
    <text x="0" y="0" font-family="serif" font-size="24" fill="#065f46" text-anchor="middle">ॐ</text>
  </g>
</svg>
