<svg width="500" height="300" viewBox="0 0 500 300" xmlns="http://www.w3.org/2000/svg">
  <defs>
    <linearGradient id="skyGrad" x1="0%" y1="0%" x2="0%" y2="100%">
      <stop offset="0%" style="stop-color:#e0f2fe;stop-opacity:1" />
      <stop offset="100%" style="stop-color:#b3e5fc;stop-opacity:1" />
    </linearGradient>
    <linearGradient id="personGrad" x1="0%" y1="0%" x2="100%" y2="100%">
      <stop offset="0%" style="stop-color:#fbbf24;stop-opacity:1" />
      <stop offset="100%" style="stop-color:#f59e0b;stop-opacity:1" />
    </linearGradient>
  </defs>
  
  <!-- Background -->
  <rect width="500" height="300" fill="url(#skyGrad)"/>
  
  <!-- Mountains -->
  <path d="M0 200 L100 120 L200 180 L300 100 L400 160 L500 140 L500 300 L0 300 Z" fill="#84cc16" opacity="0.6"/>
  <path d="M0 220 L80 160 L160 200 L240 140 L320 180 L400 160 L500 180 L500 300 L0 300 Z" fill="#65a30d" opacity="0.4"/>
  
  <!-- Meditation person silhouette -->
  <g transform="translate(250,180)">
    <!-- Body -->
    <ellipse cx="0" cy="20" rx="25" ry="35" fill="url(#personGrad)" opacity="0.8"/>
    <!-- Head -->
    <circle cx="0" cy="-15" r="18" fill="url(#personGrad)" opacity="0.8"/>
    <!-- Arms in meditation pose -->
    <ellipse cx="-30" cy="10" rx="8" ry="20" fill="url(#personGrad)" opacity="0.8" transform="rotate(-30)"/>
    <ellipse cx="30" cy="10" rx="8" ry="20" fill="url(#personGrad)" opacity="0.8" transform="rotate(30)"/>
    <!-- Legs crossed -->
    <ellipse cx="-15" cy="45" rx="12" ry="8" fill="url(#personGrad)" opacity="0.8"/>
    <ellipse cx="15" cy="45" rx="12" ry="8" fill="url(#personGrad)" opacity="0.8"/>
  </g>
  
  <!-- Aura/energy circles -->
  <circle cx="250" cy="180" r="80" fill="none" stroke="#22c55e" stroke-width="2" opacity="0.3"/>
  <circle cx="250" cy="180" r="100" fill="none" stroke="#16a34a" stroke-width="1" opacity="0.2"/>
  <circle cx="250" cy="180" r="120" fill="none" stroke="#15803d" stroke-width="1" opacity="0.1"/>
  
  <!-- Floating lotus petals -->
  <g opacity="0.6">
    <ellipse cx="180" cy="120" rx="8" ry="4" fill="#f472b6" transform="rotate(45)"/>
    <ellipse cx="320" cy="140" rx="6" ry="3" fill="#ec4899" transform="rotate(-30)"/>
    <ellipse cx="200" cy="100" rx="7" ry="3" fill="#f472b6" transform="rotate(60)"/>
    <ellipse cx="300" cy="110" rx="5" ry="2" fill="#ec4899" transform="rotate(-45)"/>
  </g>
  
  <!-- Sun/light rays -->
  <g transform="translate(400,60)" opacity="0.4">
    <circle cx="0" cy="0" r="30" fill="#fbbf24" opacity="0.3"/>
    <line x1="-45" y1="0" x2="-35" y2="0" stroke="#fbbf24" stroke-width="2"/>
    <line x1="35" y1="0" x2="45" y2="0" stroke="#fbbf24" stroke-width="2"/>
    <line x1="0" y1="-45" x2="0" y2="-35" stroke="#fbbf24" stroke-width="2"/>
    <line x1="0" y1="35" x2="0" y2="45" stroke="#fbbf24" stroke-width="2"/>
    <line x1="-32" y1="-32" x2="-25" y2="-25" stroke="#fbbf24" stroke-width="2"/>
    <line x1="25" y1="25" x2="32" y2="32" stroke="#fbbf24" stroke-width="2"/>
    <line x1="32" y1="-32" x2="25" y2="-25" stroke="#fbbf24" stroke-width="2"/>
    <line x1="-25" y1="25" x2="-32" y2="32" stroke="#fbbf24" stroke-width="2"/>
  </g>
</svg>
